#N canvas 814 309 767 546 10;
#X obj 24 -96 inlet;
#X floatatom 24 -73 5 0 0 0 - - -;
#N canvas 0 0 563 317 bigtgl 0;
#X obj 101 101 tgl 50 0 empty empty empty 17 7 0 10 -24198 -1 -262144
0 1;
#X obj -34 93 sel 0 1;
#X msg 18 199 color 13;
#X msg -18 164 color 16;
#X text 156 117 <rightclick for properties;
#X obj 101 50 inlet;
#X obj 101 259 outlet;
#X connect 0 0 1 0;
#X connect 0 0 6 0;
#X connect 1 0 3 0;
#X connect 1 1 2 0;
#X connect 2 0 0 0;
#X connect 3 0 0 0;
#X connect 5 0 0 0;
#X coords 0 -1 1 1 52 52 2 100 100;
#X restore 24 158 pd bigtgl;
#N canvas 0 0 563 317 bigtgl 0;
#X obj 101 101 tgl 50 0 empty empty empty 17 7 0 10 -24198 -1 -262144
0 1;
#X obj -34 93 sel 0 1;
#X msg 18 199 color 13;
#X msg -18 164 color 16;
#X text 156 117 <rightclick for properties;
#X obj 101 50 inlet;
#X obj 101 259 outlet;
#X connect 0 0 1 0;
#X connect 0 0 6 0;
#X connect 1 0 3 0;
#X connect 1 1 2 0;
#X connect 2 0 0 0;
#X connect 3 0 0 0;
#X connect 5 0 0 0;
#X coords 0 -1 1 1 52 52 2 100 100;
#X restore 81 158 pd bigtgl;
#N canvas 0 0 563 317 bigtgl 0;
#X obj 101 101 tgl 50 0 empty empty empty 17 7 0 10 -24198 -1 -262144
0 1;
#X obj -34 93 sel 0 1;
#X msg 18 199 color 13;
#X msg -18 164 color 16;
#X text 156 117 <rightclick for properties;
#X obj 101 50 inlet;
#X obj 101 259 outlet;
#X connect 0 0 1 0;
#X connect 0 0 6 0;
#X connect 1 0 3 0;
#X connect 1 1 2 0;
#X connect 2 0 0 0;
#X connect 3 0 0 0;
#X connect 5 0 0 0;
#X coords 0 -1 1 1 52 52 2 100 100;
#X restore 138 158 pd bigtgl;
#N canvas 0 0 563 317 bigtgl 0;
#X obj 101 101 tgl 50 0 empty empty empty 17 7 0 10 -24198 -1 -262144
0 1;
#X obj -34 93 sel 0 1;
#X msg 18 199 color 13;
#X msg -18 164 color 16;
#X text 156 117 <rightclick for properties;
#X obj 101 50 inlet;
#X obj 101 259 outlet;
#X connect 0 0 1 0;
#X connect 0 0 6 0;
#X connect 1 0 3 0;
#X connect 1 1 2 0;
#X connect 2 0 0 0;
#X connect 3 0 0 0;
#X connect 5 0 0 0;
#X coords 0 -1 1 1 52 52 2 100 100;
#X restore 195 158 pd bigtgl;
#N canvas 0 0 563 317 bigtgl 0;
#X obj 101 101 tgl 50 0 empty empty empty 17 7 0 10 -24198 -1 -262144
0 1;
#X obj -34 93 sel 0 1;
#X msg 18 199 color 13;
#X msg -18 164 color 16;
#X text 156 117 <rightclick for properties;
#X obj 101 50 inlet;
#X obj 101 259 outlet;
#X connect 0 0 1 0;
#X connect 0 0 6 0;
#X connect 1 0 3 0;
#X connect 1 1 2 0;
#X connect 2 0 0 0;
#X connect 3 0 0 0;
#X connect 5 0 0 0;
#X coords 0 -1 1 1 52 52 2 100 100;
#X restore 251 158 pd bigtgl;
#N canvas 0 0 563 317 bigtgl 0;
#X obj 101 101 tgl 50 0 empty empty empty 17 7 0 10 -24198 -1 -262144
0 1;
#X obj -34 93 sel 0 1;
#X msg 18 199 color 13;
#X msg -18 164 color 16;
#X text 156 117 <rightclick for properties;
#X obj 101 50 inlet;
#X obj 101 259 outlet;
#X connect 0 0 1 0;
#X connect 0 0 6 0;
#X connect 1 0 3 0;
#X connect 1 1 2 0;
#X connect 2 0 0 0;
#X connect 3 0 0 0;
#X connect 5 0 0 0;
#X coords 0 -1 1 1 52 52 2 100 100;
#X restore 308 158 pd bigtgl;
#N canvas 0 0 563 317 bigtgl 0;
#X obj 101 101 tgl 50 0 empty empty empty 17 7 0 10 -24198 -1 -262144
0 1;
#X obj -34 93 sel 0 1;
#X msg 18 199 color 13;
#X msg -18 164 color 16;
#X text 156 117 <rightclick for properties;
#X obj 101 50 inlet;
#X obj 101 259 outlet;
#X connect 0 0 1 0;
#X connect 0 0 6 0;
#X connect 1 0 3 0;
#X connect 1 1 2 0;
#X connect 2 0 0 0;
#X connect 3 0 0 0;
#X connect 5 0 0 0;
#X coords 0 -1 1 1 52 52 2 100 100;
#X restore 365 158 pd bigtgl;
#N canvas 0 0 563 317 bigtgl 0;
#X obj 101 101 tgl 50 0 empty empty empty 17 7 0 10 -24198 -1 -262144
0 1;
#X obj -34 93 sel 0 1;
#X msg 18 199 color 13;
#X msg -18 164 color 16;
#X text 156 117 <rightclick for properties;
#X obj 101 50 inlet;
#X obj 101 259 outlet;
#X connect 0 0 1 0;
#X connect 0 0 6 0;
#X connect 1 0 3 0;
#X connect 1 1 2 0;
#X connect 2 0 0 0;
#X connect 3 0 0 0;
#X connect 5 0 0 0;
#X coords 0 -1 1 1 52 52 2 100 100;
#X restore 422 158 pd bigtgl;
#N canvas 0 0 563 317 bigtgl 0;
#X obj 101 101 tgl 50 0 empty empty empty 17 7 0 10 -24198 -1 -262144
0 1;
#X obj -34 93 sel 0 1;
#X msg 18 199 color 13;
#X msg -18 164 color 16;
#X text 156 117 <rightclick for properties;
#X obj 101 50 inlet;
#X obj 101 259 outlet;
#X connect 0 0 1 0;
#X connect 0 0 6 0;
#X connect 1 0 3 0;
#X connect 1 1 2 0;
#X connect 2 0 0 0;
#X connect 3 0 0 0;
#X connect 5 0 0 0;
#X coords 0 -1 1 1 52 52 2 100 100;
#X restore 478 158 pd bigtgl;
#X obj 24 231 outlet;
#X obj 81 231 outlet;
#X obj 138 231 outlet;
#X obj 195 231 outlet;
#X obj 251 231 outlet;
#X obj 308 231 outlet;
#X obj 365 231 outlet;
#X obj 422 231 outlet;
#X obj 478 231 outlet;
#X obj 24 -23 route 1 2 3 4 5 6 7 8 9 0;
#X msg 251 11 0;
#X text 25 -143 multiple select 1-9 \, 0 resets all;
#X obj 95 295 print;
#X obj 333 -69 numpad;
#X connect 0 0 1 0;
#X connect 1 0 20 0;
#X connect 2 0 11 0;
#X connect 2 0 23 0;
#X connect 3 0 12 0;
#X connect 4 0 13 0;
#X connect 5 0 14 0;
#X connect 6 0 15 0;
#X connect 7 0 16 0;
#X connect 8 0 17 0;
#X connect 9 0 18 0;
#X connect 10 0 19 0;
#X connect 20 0 2 0;
#X connect 20 1 3 0;
#X connect 20 2 4 0;
#X connect 20 3 5 0;
#X connect 20 4 6 0;
#X connect 20 5 7 0;
#X connect 20 6 8 0;
#X connect 20 7 9 0;
#X connect 20 8 10 0;
#X connect 20 9 21 0;
#X connect 21 0 2 0;
#X connect 21 0 3 0;
#X connect 21 0 4 0;
#X connect 21 0 5 0;
#X connect 21 0 6 0;
#X connect 21 0 7 0;
#X connect 21 0 8 0;
#X connect 21 0 9 0;
#X connect 21 0 10 0;
#X connect 24 0 1 0;
