#N canvas 65 82 450 300 10;
#X floatatom 75 43 5 0 0 0 - - -;
#X obj 75 -167 key;
#X floatatom 75 -133 5 0 0 0 - - -;
#X msg 109 -63 2;
#X msg 141 -63 3;
#X msg 171 -63 4;
#X msg 201 -63 5;
#X msg 234 -63 6;
#X msg 261 -63 7;
#X msg 293 -63 8;
#X msg 325 -63 9;
#X obj 75 -100 select 49 50 51 52 53 54 55 56 57 48;
#X msg 360 -63 0;
#X text 140 -168 press 0-9;
#X msg 75 -63 1;
#X obj 75 91 outlet;
#X connect 0 0 15 0;
#X connect 1 0 2 0;
#X connect 2 0 11 0;
#X connect 3 0 0 0;
#X connect 4 0 0 0;
#X connect 5 0 0 0;
#X connect 6 0 0 0;
#X connect 7 0 0 0;
#X connect 8 0 0 0;
#X connect 9 0 0 0;
#X connect 10 0 0 0;
#X connect 11 0 14 0;
#X connect 11 1 3 0;
#X connect 11 2 4 0;
#X connect 11 3 5 0;
#X connect 11 4 6 0;
#X connect 11 5 7 0;
#X connect 11 6 8 0;
#X connect 11 7 9 0;
#X connect 11 8 10 0;
#X connect 11 9 12 0;
#X connect 12 0 0 0;
#X connect 14 0 0 0;
