#N canvas 1000 244 565 411 10;
#X floatatom 37 222 5 0 0 0 - - -;
#X obj 37 259 outlet;
#X obj 79 259 outlet;
#X obj 121 259 outlet;
#X obj 37 184 int;
#X floatatom 79 222 5 0 0 0 - - -;
#X obj 79 184 int;
#X floatatom 121 222 5 0 0 0 - - -;
#X obj 121 184 int;
#X obj 37 84 OSCroute /\$1;
#X obj 37 27 inlet;
#X obj 37 146 unpack f f f;
#X connect 0 0 1 0;
#X connect 4 0 0 0;
#X connect 5 0 2 0;
#X connect 6 0 5 0;
#X connect 7 0 3 0;
#X connect 8 0 7 0;
#X connect 9 0 11 0;
#X connect 10 0 9 0;
#X connect 11 0 4 0;
#X connect 11 1 6 0;
#X connect 11 2 8 0;
