#N canvas 567 275 760 585 10;
#X msg 73 -17 set \$1 \$2;
#X obj 73 -86 i;
#X msg 111 -86 1;
#X msg 142 -86 0;
#X obj 13 -171 inlet;
#X obj 13 193 outlet;
#X floatatom 13 -148 5 0 0 0 - - -;
#X msg 13 21 9 1;
#N canvas 0 0 563 317 bigtgl 0;
#X obj 101 101 tgl 50 0 empty empty empty 17 7 0 10 -24198 -1 -262144
0 1;
#X obj -34 93 sel 0 1;
#X msg 18 199 color 13;
#X msg -18 164 color 16;
#X text 156 117 <rightclick for properties;
#X obj 101 50 inlet;
#X obj 101 259 outlet;
#X connect 0 0 1 0;
#X connect 0 0 6 0;
#X connect 1 0 3 0;
#X connect 1 1 2 0;
#X connect 2 0 0 0;
#X connect 3 0 0 0;
#X connect 5 0 0 0;
#X coords 0 -1 1 1 52 52 2 100 100;
#X restore 46 113 pd bigtgl;
#N canvas 0 0 563 317 bigtgl 0;
#X obj 101 101 tgl 50 0 empty empty empty 17 7 0 10 -24198 -1 -262144
0 1;
#X obj -34 93 sel 0 1;
#X msg 18 199 color 13;
#X msg -18 164 color 16;
#X text 156 117 <rightclick for properties;
#X obj 101 50 inlet;
#X obj 101 259 outlet;
#X connect 0 0 1 0;
#X connect 0 0 6 0;
#X connect 1 0 3 0;
#X connect 1 1 2 0;
#X connect 2 0 0 0;
#X connect 3 0 0 0;
#X connect 5 0 0 0;
#X coords 0 -1 1 1 52 52 2 100 100;
#X restore 103 113 pd bigtgl;
#N canvas 0 0 563 317 bigtgl 0;
#X obj 101 101 tgl 50 0 empty empty empty 17 7 0 10 -24198 -1 -262144
0 1;
#X obj -34 93 sel 0 1;
#X msg 18 199 color 13;
#X msg -18 164 color 16;
#X text 156 117 <rightclick for properties;
#X obj 101 50 inlet;
#X obj 101 259 outlet;
#X connect 0 0 1 0;
#X connect 0 0 6 0;
#X connect 1 0 3 0;
#X connect 1 1 2 0;
#X connect 2 0 0 0;
#X connect 3 0 0 0;
#X connect 5 0 0 0;
#X coords 0 -1 1 1 52 52 2 100 100;
#X restore 160 113 pd bigtgl;
#N canvas 0 0 563 317 bigtgl 0;
#X obj 101 101 tgl 50 0 empty empty empty 17 7 0 10 -24198 -1 -262144
0 1;
#X obj -34 93 sel 0 1;
#X msg 18 199 color 13;
#X msg -18 164 color 16;
#X text 156 117 <rightclick for properties;
#X obj 101 50 inlet;
#X obj 101 259 outlet;
#X connect 0 0 1 0;
#X connect 0 0 6 0;
#X connect 1 0 3 0;
#X connect 1 1 2 0;
#X connect 2 0 0 0;
#X connect 3 0 0 0;
#X connect 5 0 0 0;
#X coords 0 -1 1 1 52 52 2 100 100;
#X restore 217 113 pd bigtgl;
#N canvas 0 0 563 317 bigtgl 0;
#X obj 101 101 tgl 50 0 empty empty empty 17 7 0 10 -24198 -1 -262144
0 1;
#X obj -34 93 sel 0 1;
#X msg 18 199 color 13;
#X msg -18 164 color 16;
#X text 156 117 <rightclick for properties;
#X obj 101 50 inlet;
#X obj 101 259 outlet;
#X connect 0 0 1 0;
#X connect 0 0 6 0;
#X connect 1 0 3 0;
#X connect 1 1 2 0;
#X connect 2 0 0 0;
#X connect 3 0 0 0;
#X connect 5 0 0 0;
#X coords 0 -1 1 1 52 52 2 100 100;
#X restore 273 113 pd bigtgl;
#N canvas 0 0 563 317 bigtgl 0;
#X obj 101 101 tgl 50 0 empty empty empty 17 7 0 10 -24198 -1 -262144
0 1;
#X obj -34 93 sel 0 1;
#X msg 18 199 color 13;
#X msg -18 164 color 16;
#X text 156 117 <rightclick for properties;
#X obj 101 50 inlet;
#X obj 101 259 outlet;
#X connect 0 0 1 0;
#X connect 0 0 6 0;
#X connect 1 0 3 0;
#X connect 1 1 2 0;
#X connect 2 0 0 0;
#X connect 3 0 0 0;
#X connect 5 0 0 0;
#X coords 0 -1 1 1 52 52 2 100 100;
#X restore 330 113 pd bigtgl;
#N canvas 0 0 563 317 bigtgl 0;
#X obj 101 101 tgl 50 0 empty empty empty 17 7 0 10 -24198 -1 -262144
0 1;
#X obj -34 93 sel 0 1;
#X msg 18 199 color 13;
#X msg -18 164 color 16;
#X text 156 117 <rightclick for properties;
#X obj 101 50 inlet;
#X obj 101 259 outlet;
#X connect 0 0 1 0;
#X connect 0 0 6 0;
#X connect 1 0 3 0;
#X connect 1 1 2 0;
#X connect 2 0 0 0;
#X connect 3 0 0 0;
#X connect 5 0 0 0;
#X coords 0 -1 1 1 52 52 2 100 100;
#X restore 387 113 pd bigtgl;
#N canvas 0 0 563 317 bigtgl 0;
#X obj 101 101 tgl 50 0 empty empty empty 17 7 0 10 -24198 -1 -262144
0 1;
#X obj -34 93 sel 0 1;
#X msg 18 199 color 13;
#X msg -18 164 color 16;
#X text 156 117 <rightclick for properties;
#X obj 101 50 inlet;
#X obj 101 259 outlet;
#X connect 0 0 1 0;
#X connect 0 0 6 0;
#X connect 1 0 3 0;
#X connect 1 1 2 0;
#X connect 2 0 0 0;
#X connect 3 0 0 0;
#X connect 5 0 0 0;
#X coords 0 -1 1 1 52 52 2 100 100;
#X restore 444 113 pd bigtgl;
#N canvas 0 0 563 317 bigtgl 0;
#X obj 101 101 tgl 50 0 empty empty empty 17 7 0 10 -258699 -1 -262144
1 1;
#X obj -34 93 sel 0 1;
#X msg 18 199 color 13;
#X msg -18 164 color 16;
#X text 156 117 <rightclick for properties;
#X obj 101 50 inlet;
#X obj 101 259 outlet;
#X connect 0 0 1 0;
#X connect 0 0 6 0;
#X connect 1 0 3 0;
#X connect 1 1 2 0;
#X connect 2 0 0 0;
#X connect 3 0 0 0;
#X connect 5 0 0 0;
#X coords 0 -1 1 1 52 52 2 100 100;
#X restore 499 113 pd bigtgl;
#X obj 73 -51 pack;
#X obj 46 60 route 1 2 3 4 5 6 7 8 9;
#X obj 13 -126 t b i b b b b;
#X connect 0 0 7 0;
#X connect 1 0 17 0;
#X connect 2 0 17 1;
#X connect 3 0 17 1;
#X connect 4 0 6 0;
#X connect 6 0 19 0;
#X connect 7 0 5 0;
#X connect 7 0 18 0;
#X connect 17 0 0 0;
#X connect 18 0 8 0;
#X connect 18 1 9 0;
#X connect 18 2 10 0;
#X connect 18 3 11 0;
#X connect 18 4 12 0;
#X connect 18 5 13 0;
#X connect 18 6 14 0;
#X connect 18 7 15 0;
#X connect 18 8 16 0;
#X connect 19 0 7 0;
#X connect 19 1 1 0;
#X connect 19 2 2 0;
#X connect 19 3 7 0;
#X connect 19 4 1 0;
#X connect 19 5 3 0;
#X coords 0 585 1 584 85 60 0;
