#N canvas 825 188 638 818 10;
#X obj 135 116 sendOSC;
#X msg 135 6 disconnect;
#X msg 294 13 send /bla/12 34;
#X msg 294 33 send /bla/56 78;
#X msg 293 64 send /bla 89 95;
#X obj 191 297 split_path;
#X obj 134 235 route list;
#X obj 134 164 dumpOSC 9999;
#X floatatom 70 351 5 0 0 0 - - -;
#X floatatom 127 351 5 0 0 0 - - -;
#X obj 191 273 unpack s f;
#X floatatom 322 351 5 0 0 0 - - -;
#X msg 293 83 send /bla 21 22;
#X obj 191 320 fromsymbol;
#X floatatom 272 351 5 0 0 0 - - -;
#X obj 82 137 inlet;
#X obj 70 268 unpack 0 0 0;
#X msg 114 -17 connect localhost 9999;
#X obj 132 205 OSCroute /bla;
#X connect 1 0 0 0;
#X connect 2 0 0 0;
#X connect 3 0 0 0;
#X connect 4 0 0 0;
#X connect 5 1 13 0;
#X connect 6 0 16 0;
#X connect 6 1 10 0;
#X connect 7 0 18 0;
#X connect 10 0 5 0;
#X connect 10 1 11 0;
#X connect 12 0 0 0;
#X connect 13 0 14 0;
#X connect 15 0 18 0;
#X connect 16 0 8 0;
#X connect 16 1 9 0;
#X connect 17 0 0 0;
#X connect 18 0 6 0;
