#N canvas 843 394 742 503 12;
#X floatatom 185 190 5 0 0 0 - - -;
#X floatatom 245 190 5 0 0 0 - - -;
#X floatatom 304 190 5 0 0 0 - - -;
#X obj 287 105 phone accelerometer;
#X obj 217 416 sendOSC;
#X msg 16 320 disconnect;
#X obj 291 415 sendOSC;
#X msg 447 371 disconnect;
#X msg 235 269 send /accelerometer 1 2 3;
#X msg 283 300 send /multi/54 126;
#X obj 75 154 split_path;
#X symbolatom 74 181 0 0 0 0 - - -;
#X obj 75 130 unpack s;
#X obj 18 92 route list;
#X msg 354 345 connect localhost 3333;
#X obj 287 21 dumpOSC 3334;
#X obj 389 64 receiveosc;
#X msg -1 294 connect localhost 3334;
#X text 612 374 to webpage;
#X text 115 327 to local pd;
#X text 410 327 comment;
#X text -24 315 comment;
#X obj 18 64 OSCroute /bla;
#X obj 122 27 print;
#X obj 604 96 radio;
#X obj 604 132 print radio;
#X obj 514 133 print numpad;
#X msg 463 237 send /instrument/\$1 \$2;
#X obj 543 302 loadbang;
#X connect 3 0 0 0;
#X connect 3 1 1 0;
#X connect 3 2 2 0;
#X connect 5 0 4 0;
#X connect 7 0 6 0;
#X connect 8 0 6 0;
#X connect 9 0 6 0;
#X connect 10 1 11 0;
#X connect 12 0 10 0;
#X connect 13 1 12 0;
#X connect 14 0 6 0;
#X connect 15 0 16 0;
#X connect 15 0 22 0;
#X connect 15 0 3 0;
#X connect 15 0 23 0;
#X connect 16 0 27 0;
#X connect 16 0 24 0;
#X connect 17 0 4 0;
#X connect 22 0 13 0;
#X connect 24 0 25 0;
#X connect 27 0 6 0;
#X connect 28 0 14 0;
