#N canvas 65 92 524 300 10;
#X obj 157 40 dumpOSC 3334;
#X obj 157 114 phone accelerometer;
#X floatatom 110 164 5 0 0 0 - - -;
#X floatatom 204 164 5 0 0 0 - - -;
#X floatatom 298 164 5 0 0 0 - - -;
#X obj 298 220 send josOverdrive;
#X obj 110 220 send josFilter;
#X obj 204 220 send josVolume;
#X text 189 262 send commmandos 0-1;
#X text 143 163 tiltLR;
#X text 237 163 tiltFB;
#X text 333 163 dir;
#X connect 0 0 1 0;
#X connect 1 0 2 0;
#X connect 1 1 3 0;
#X connect 1 2 4 0;
#X connect 2 0 6 0;
#X connect 3 0 7 0;
#X connect 4 0 5 0;
